<svg width="168" height="29" viewBox="0 0 168 29" fill="none" xmlns="http://www.w3.org/2000/svg">
<path d="M157.174 12.817V22.7857H154.609V0.690472H157.174V8.80357H157.391C157.783 7.94767 158.37 7.26798 159.152 6.76451C159.942 6.25384 160.993 5.99851 162.304 5.99851C163.442 5.99851 164.438 6.22507 165.293 6.6782C166.149 7.12413 166.812 7.81101 167.283 8.73884C167.761 9.65947 168 10.8318 168 12.256V22.7857H165.435V12.4286C165.435 11.1124 165.091 10.0946 164.402 9.37537C163.721 8.64893 162.775 8.28571 161.565 8.28571C160.725 8.28571 159.971 8.46193 159.304 8.81436C158.645 9.16679 158.123 9.68105 157.739 10.3571C157.362 11.0332 157.174 11.8532 157.174 12.817Z" fill="black"/>
<path d="M135.957 29V6.21428H138.435V8.84672H138.739C138.928 8.55902 139.188 8.1922 139.522 7.74627C139.862 7.29315 140.348 6.89037 140.978 6.53794C141.616 6.17831 142.478 5.9985 143.565 5.9985C144.971 5.9985 146.21 6.34734 147.283 7.04501C148.355 7.74267 149.192 8.73164 149.793 10.0119C150.395 11.2922 150.696 12.8026 150.696 14.5431C150.696 16.2981 150.395 17.8193 149.793 19.1068C149.192 20.387 148.359 21.3796 147.293 22.0844C146.228 22.7821 145 23.131 143.609 23.131C142.536 23.131 141.678 22.9547 141.033 22.6023C140.388 22.2427 139.891 21.8363 139.544 21.3832C139.196 20.9229 138.928 20.5417 138.739 20.2396H138.522V29H135.957ZM138.478 14.5C138.478 15.7515 138.663 16.8555 139.033 17.8121C139.402 18.7615 139.942 19.5059 140.652 20.0454C141.362 20.5776 142.232 20.8437 143.261 20.8437C144.333 20.8437 145.228 20.5632 145.946 20.0022C146.67 19.434 147.214 18.6716 147.576 17.715C147.946 16.7512 148.13 15.6796 148.13 14.5C148.13 13.3348 147.949 12.2847 147.587 11.3497C147.232 10.4075 146.692 9.66306 145.967 9.11643C145.25 8.56261 144.348 8.2857 143.261 8.2857C142.217 8.2857 141.341 8.54823 140.63 9.07328C139.92 9.59114 139.384 10.3176 139.022 11.2526C138.659 12.1804 138.478 13.2629 138.478 14.5Z" fill="black"/>
<path d="M123.622 23.1741C122.564 23.1741 121.604 22.9763 120.742 22.5807C119.879 22.1779 119.195 21.599 118.687 20.8437C118.18 20.0813 117.927 19.1607 117.927 18.0818C117.927 17.1324 118.115 16.3628 118.492 15.7731C118.869 15.1761 119.372 14.7086 120.003 14.3705C120.633 14.0325 121.329 13.7807 122.09 13.6153C122.858 13.4427 123.629 13.306 124.405 13.2054C125.419 13.0759 126.242 12.9788 126.872 12.9141C127.51 12.8421 127.974 12.7235 128.263 12.558C128.561 12.3926 128.709 12.1049 128.709 11.6949V11.6086C128.709 10.5441 128.416 9.71701 127.829 9.12722C127.249 8.53744 126.369 8.24255 125.187 8.24255C123.963 8.24255 123.003 8.50867 122.307 9.04091C121.611 9.57316 121.122 10.1414 120.84 10.7455L118.405 9.88243C118.84 8.87549 119.419 8.09151 120.144 7.5305C120.876 6.96229 121.673 6.56671 122.535 6.34374C123.405 6.11358 124.26 5.9985 125.1 5.9985C125.637 5.9985 126.253 6.06323 126.948 6.1927C127.651 6.31497 128.329 6.5703 128.981 6.95869C129.64 7.34709 130.187 7.93328 130.622 8.71725C131.057 9.50123 131.274 10.5513 131.274 11.8676V22.7857H128.709V20.5417H128.579C128.405 20.9013 128.115 21.2861 127.709 21.6961C127.303 22.106 126.763 22.4549 126.09 22.7426C125.416 23.0303 124.593 23.1741 123.622 23.1741ZM124.013 20.8869C125.028 20.8869 125.883 20.6891 126.579 20.2935C127.282 19.8979 127.811 19.3873 128.166 18.7615C128.528 18.1358 128.709 17.4777 128.709 16.7872V14.4568C128.6 14.5863 128.361 14.705 127.992 14.8129C127.629 14.9136 127.209 15.0035 126.731 15.0826C126.26 15.1545 125.8 15.2192 125.35 15.2768C124.908 15.3271 124.55 15.3703 124.274 15.4062C123.608 15.4926 122.984 15.6328 122.405 15.827C121.832 16.014 121.369 16.2981 121.013 16.6793C120.666 17.0533 120.492 17.564 120.492 18.2113C120.492 19.096 120.821 19.7649 121.481 20.218C122.148 20.6639 122.992 20.8869 124.013 20.8869Z" fill="black"/>
<path d="M107.321 22.7857V6.21429H109.799V8.71727H109.973C110.277 7.89733 110.828 7.23203 111.625 6.72136C112.422 6.2107 113.321 5.95536 114.321 5.95536C114.509 5.95536 114.745 5.95896 115.027 5.96615C115.31 5.97335 115.524 5.98414 115.669 5.99852V8.58781C115.582 8.56623 115.382 8.53386 115.071 8.49071C114.766 8.44036 114.444 8.41519 114.103 8.41519C113.292 8.41519 112.567 8.58421 111.929 8.92226C111.299 9.25311 110.799 9.71343 110.429 10.3032C110.067 10.8858 109.886 11.5511 109.886 12.2991V22.7857H107.321Z" fill="black"/>
<path d="M100.139 7.59525C99.8994 6.86881 99.5842 6.21789 99.1929 5.6425C98.8088 5.05991 98.3487 4.56363 97.8124 4.15366C97.2835 3.74368 96.682 3.43081 96.0081 3.21504C95.3342 2.99926 94.5951 2.89138 93.7907 2.89138C92.4719 2.89138 91.2726 3.22942 90.1929 3.90551C89.1132 4.58161 88.2545 5.57776 87.6168 6.89398C86.9791 8.21021 86.6603 9.82491 86.6603 11.7381C86.6603 13.6513 86.9827 15.266 87.6277 16.5822C88.2726 17.8985 89.1458 18.8946 90.2472 19.5707C91.3487 20.2468 92.5878 20.5848 93.9646 20.5848C95.24 20.5848 96.3632 20.3151 97.3342 19.7757C98.3124 19.2291 99.0733 18.4595 99.6168 17.4669C100.168 16.4672 100.443 15.2912 100.443 13.939L101.269 14.1116H94.5733V11.7381H103.052V14.1116C103.052 15.9313 102.66 17.5137 101.878 18.8586C101.102 20.2036 100.03 21.2465 98.6603 21.9874C97.2979 22.721 95.7327 23.0878 93.9646 23.0878C91.9936 23.0878 90.2617 22.6275 88.769 21.7069C87.2835 20.7862 86.124 19.4772 85.2907 17.7798C84.4646 16.0824 84.0516 14.0685 84.0516 11.7381C84.0516 9.99034 84.2871 8.41878 84.7581 7.02345C85.2364 5.62092 85.9103 4.42697 86.7798 3.4416C87.6494 2.45623 88.6784 1.70103 89.8668 1.17598C91.0552 0.650925 92.3632 0.3884 93.7907 0.3884C94.9646 0.3884 96.0588 0.564616 97.0733 0.917047C98.095 1.26228 99.0045 1.75497 99.8016 2.3951C100.606 3.02803 101.276 3.78684 101.812 4.67151C102.349 5.54899 102.718 6.52357 102.921 7.59525H100.139Z" fill="black"/>
<path d="M73.0923 23.131C71.5851 23.131 70.2626 22.7749 69.1249 22.0629C67.9945 21.3508 67.1104 20.3547 66.4727 19.0744C65.8423 17.7941 65.5271 16.2981 65.5271 14.5863C65.5271 12.8601 65.8423 11.3533 66.4727 10.0658C67.1104 8.77839 67.9945 7.77864 69.1249 7.06658C70.2626 6.35453 71.5851 5.9985 73.0923 5.9985C74.5995 5.9985 75.9184 6.35453 77.0488 7.06658C78.1865 7.77864 79.0706 8.77839 79.701 10.0658C80.3387 11.3533 80.6575 12.8601 80.6575 14.5863C80.6575 16.2981 80.3387 17.7941 79.701 19.0744C79.0706 20.3547 78.1865 21.3508 77.0488 22.0629C75.9184 22.7749 74.5995 23.131 73.0923 23.131ZM73.0923 20.8437C74.2372 20.8437 75.1792 20.5525 75.9184 19.9699C76.6575 19.3873 77.2046 18.6213 77.5597 17.6719C77.9148 16.7225 78.0923 15.6939 78.0923 14.5863C78.0923 13.4787 77.9148 12.4465 77.5597 11.4899C77.2046 10.5333 76.6575 9.76016 75.9184 9.17038C75.1792 8.5806 74.2372 8.2857 73.0923 8.2857C71.9474 8.2857 71.0053 8.5806 70.2662 9.17038C69.5271 9.76016 68.98 10.5333 68.6249 11.4899C68.2698 12.4465 68.0923 13.4787 68.0923 14.5863C68.0923 15.6939 68.2698 16.7225 68.6249 17.6719C68.98 18.6213 69.5271 19.3873 70.2662 19.9699C71.0053 20.5525 71.9474 20.8437 73.0923 20.8437Z" fill="black"/>
<path d="M59.0462 22.7857V6.21429H61.6114V22.7857H59.0462ZM60.3505 3.45238C59.8505 3.45238 59.4194 3.28336 59.057 2.94531C58.702 2.60727 58.5244 2.20089 58.5244 1.72619C58.5244 1.25149 58.702 0.845114 59.057 0.507068C59.4194 0.169022 59.8505 0 60.3505 0C60.8505 0 61.2781 0.169022 61.6331 0.507068C61.9954 0.845114 62.1766 1.25149 62.1766 1.72619C62.1766 2.20089 61.9954 2.60727 61.6331 2.94531C61.2781 3.28336 60.8505 3.45238 60.3505 3.45238Z" fill="black"/>
<path d="M47.6812 0H49.3816V22.7857H47.6812V0Z" fill="black"/>
<path d="M39.1788 20.254C39.1788 18.8557 40.3207 17.7222 41.7295 17.7222H44.2802C45.6889 17.7222 46.8309 18.8557 46.8309 20.254C46.8309 21.6522 45.6889 22.7857 44.2802 22.7857H41.7295C40.3207 22.7857 39.1788 21.6522 39.1788 20.254Z" fill="black"/>
<path d="M56.1836 3.79762L50.4444 7.08646V0.508785L56.1836 3.79762Z" fill="black"/>
<path d="M32.7718 16.0104V6.2143H35.3371V22.7857H32.7718V19.9807H32.5979C32.2066 20.8222 31.5979 21.5378 30.7718 22.1276C29.9458 22.7102 28.9023 23.0015 27.6414 23.0015C26.5979 23.0015 25.6704 22.7749 24.8588 22.3218C24.0472 21.8615 23.4095 21.171 22.9458 20.2504C22.482 19.3226 22.2501 18.1538 22.2501 16.7441V6.2143H24.8153V16.5714C24.8153 17.7798 25.1559 18.7436 25.8371 19.4628C26.5255 20.1821 27.4023 20.5417 28.4675 20.5417C29.1052 20.5417 29.7537 20.3799 30.4132 20.0562C31.0798 19.7325 31.6378 19.2363 32.0871 18.5674C32.5436 17.8985 32.7718 17.0461 32.7718 16.0104Z" fill="black"/>
<path d="M2.82609 22.7857H0L8.17391 0.690472H10.9565L19.1304 22.7857H16.3043L9.65217 4.18601H9.47825L2.82609 22.7857ZM3.86956 14.1548H15.2609V16.5283H3.86956V14.1548Z" fill="black"/>
</svg>
